<svg width="192" height="192" viewBox="0 0 192 192" fill="none" xmlns="http://www.w3.org/2000/svg">
  <rect width="192" height="192" rx="36" fill="url(#gradient)"/>
  <g transform="translate(96, 96) scale(0.375)">
    <path d="M-140 -60 L-140 100 L-110 120 L110 120 L140 100 L140 -60 L110 -80 L-110 -80 Z" fill="white" opacity="0.98"/>
    <line x1="-110" y1="-80" x2="-110" y2="120" stroke="#3b82f6" stroke-width="6"/>
    <g transform="translate(20, 0)">
      <circle cx="-40" cy="-30" r="12" fill="#3b82f6"/>
      <circle cx="0" cy="-30" r="12" fill="#3b82f6"/>
      <circle cx="40" cy="-30" r="12" fill="#3b82f6"/>
      <circle cx="-40" cy="20" r="12" fill="#60a5fa"/>
      <circle cx="0" cy="20" r="12" fill="#60a5fa"/>
      <circle cx="40" cy="20" r="12" fill="#60a5fa"/>
      <circle cx="-40" cy="70" r="12" fill="#3b82f6"/>
      <circle cx="0" cy="70" r="12" fill="#3b82f6"/>
      <circle cx="40" cy="70" r="12" fill="#3b82f6"/>
      <g stroke="#3b82f6" stroke-width="3" opacity="0.5">
        <line x1="-40" y1="-18" x2="-40" y2="8"/>
        <line x1="0" y1="-18" x2="0" y2="8"/>
        <line x1="40" y1="-18" x2="40" y2="8"/>
        <line x1="-40" y1="32" x2="-40" y2="58"/>
        <line x1="0" y1="32" x2="0" y2="58"/>
        <line x1="40" y1="32" x2="40" y2="58"/>
      </g>
    </g>
    <text x="-90" y="25" font-family="system-ui, sans-serif" font-size="60" font-weight="800" fill="#1e40af" opacity="0.3">AI</text>
  </g>
  <defs>
    <linearGradient id="gradient" x1="0%" y1="0%" x2="100%" y2="100%">
      <stop offset="0%" style="stop-color:#1e40af"/>
      <stop offset="50%" style="stop-color:#3b82f6"/>
      <stop offset="100%" style="stop-color:#60a5fa"/>
    </linearGradient>
  </defs>
</svg>
