<svg width="192" height="192" viewBox="0 0 192 192" fill="none" xmlns="http://www.w3.org/2000/svg">
  <rect width="192" height="192" rx="36" fill="url(#gradient)"/>
  <g transform="translate(96, 96) scale(0.375)">
    <path d="M-240 -170 Q-240 180, -30 190 L-30 -150 Q-240 -160, -240 -170 Z" fill="white" opacity="0.98" stroke="#e5e7eb" stroke-width="3"/>
    <path d="M240 -170 Q240 180, 30 190 L30 -150 Q240 -160, 240 -170 Z" fill="white" opacity="0.98" stroke="#e5e7eb" stroke-width="3"/>
    <rect x="-15" y="-170" width="30" height="360" fill="#1e40af" opacity="0.2"/>
    <g transform="translate(0, -10)">
      <text x="-120" y="100" font-family="system-ui, sans-serif" font-size="220" font-weight="900" fill="#1e40af" stroke="#1e40af" stroke-width="2" text-anchor="middle" transform="scale(1, 1.3)">A</text>
      <text x="135" y="100" font-family="system-ui, sans-serif" font-size="220" font-weight="900" fill="#1e40af" stroke="#1e40af" stroke-width="2" text-anchor="middle" transform="scale(1, 1.3)">I</text>
    </g>
    <g transform="translate(0, -180)">
      <circle cx="-80" cy="0" r="28" fill="#fbbf24" stroke="#f59e0b" stroke-width="3"/>
      <circle cx="0" cy="-20" r="32" fill="#fbbf24" stroke="#f59e0b" stroke-width="3"/>
      <circle cx="80" cy="0" r="28" fill="#fbbf24" stroke="#f59e0b" stroke-width="3"/>
      <line x1="-80" y1="0" x2="0" y2="-20" stroke="#fbbf24" stroke-width="6" opacity="0.7"/>
      <line x1="0" y1="-20" x2="80" y2="0" stroke="#fbbf24" stroke-width="6" opacity="0.7"/>
    </g>
  </g>
  <defs>
    <linearGradient id="gradient" x1="0%" y1="0%" x2="100%" y2="100%">
      <stop offset="0%" style="stop-color:#1e40af"/>
      <stop offset="50%" style="stop-color:#3b82f6"/>
      <stop offset="100%" style="stop-color:#60a5fa"/>
    </linearGradient>
  </defs>
</svg>
