<svg width="192" height="192" viewBox="0 0 192 192" fill="none" xmlns="http://www.w3.org/2000/svg">
  <rect width="192" height="192" rx="36" fill="url(#gradient)"/>
  <g transform="translate(96, 96) scale(0.43125)">
    <rect x="-200" y="-200" width="400" height="400" rx="40" fill="white" opacity="0.98" stroke="#e5e7eb" stroke-width="6"/>
    <g stroke="#3b82f6" stroke-width="6" opacity="0.3" fill="none">
      <path d="M-150 -150 L-100 -150 L-100 -100 L-50 -100"/>
      <circle cx="-100" cy="-150" r="8" fill="#3b82f6"/>
      <circle cx="-100" cy="-100" r="8" fill="#3b82f6"/>
    </g>
    <g stroke="#60a5fa" stroke-width="6" opacity="0.3" fill="none">
      <path d="M150 -150 L100 -150 L100 -100 L50 -100"/>
      <circle cx="100" cy="-150" r="8" fill="#60a5fa"/>
      <circle cx="100" cy="-100" r="8" fill="#60a5fa"/>
    </g>
    <circle cx="0" cy="0" r="180" fill="#3b82f6" opacity="0.12"/>
    <circle cx="0" cy="0" r="140" fill="#3b82f6" opacity="0.20"/>
    <circle cx="0" cy="0" r="100" fill="#3b82f6" opacity="0.30"/>
    <text x="0" y="60" font-family="system-ui, sans-serif" font-size="200" font-weight="900" fill="#1e40af" text-anchor="middle">AI</text>
    <g fill="#fbbf24">
      <rect x="-100" y="-220" width="30" height="20" rx="4"/>
      <rect x="70" y="-220" width="30" height="20" rx="4"/>
      <rect x="-100" y="200" width="30" height="20" rx="4"/>
      <rect x="70" y="200" width="30" height="20" rx="4"/>
      <rect x="-220" y="-100" width="20" height="30" rx="4"/>
      <rect x="-220" y="70" width="20" height="30" rx="4"/>
      <rect x="200" y="-100" width="20" height="30" rx="4"/>
      <rect x="200" y="70" width="20" height="30" rx="4"/>
    </g>
  </g>
  <defs>
    <linearGradient id="gradient" x1="0%" y1="0%" x2="100%" y2="100%">
      <stop offset="0%" style="stop-color:#1e40af"/>
      <stop offset="50%" style="stop-color:#3b82f6"/>
      <stop offset="100%" style="stop-color:#60a5fa"/>
    </linearGradient>
  </defs>
</svg>
